<?xml version="1.0" encoding="UTF-8" standalone="no"?>
<!DOCTYPE svg PUBLIC "-//W3C//DTD SVG 1.1//EN" "http://www.w3.org/Graphics/SVG/1.1/DTD/svg11.dtd">
<svg width="100%" height="100%" viewBox="0 0 12 12" version="1.1" xmlns="http://www.w3.org/2000/svg" xmlns:xlink="http://www.w3.org/1999/xlink" xml:space="preserve" xmlns:serif="http://www.serif.com/" style="fill-rule:evenodd;clip-rule:evenodd;stroke-linejoin:round;stroke-miterlimit:2;">
    <g transform="matrix(0.5,0,0,0.5,0,0)">
        <path d="M21.55,10.004C22.055,8.507 21.88,6.861 21.072,5.503C19.855,3.413 17.41,2.337 15.022,2.843C13.953,1.659 12.426,0.988 10.831,1C8.39,0.995 6.224,2.546 5.473,4.838C3.912,5.15 2.559,6.119 1.76,7.496C0.537,9.573 0.819,12.223 2.451,13.996C1.945,15.493 2.12,17.14 2.928,18.498C4.145,20.588 6.59,21.663 8.978,21.158C10.047,22.342 11.573,23.013 13.168,23C15.611,23.006 17.778,21.454 18.529,19.16C20.091,18.848 21.445,17.878 22.244,16.5C23.464,14.424 23.182,11.775 21.551,10.003L21.551,10.004L21.55,10.004ZM13.169,21.562C12.194,21.564 11.248,21.227 10.494,20.608C10.528,20.59 10.587,20.558 10.626,20.534L15.066,18.004C15.291,17.878 15.431,17.639 15.43,17.381L15.43,11.205L17.307,12.274C17.327,12.284 17.34,12.303 17.343,12.324L17.343,17.439C17.34,19.713 15.473,21.557 13.169,21.562ZM4.192,17.78C3.703,16.948 3.526,15.968 3.694,15.017C3.726,15.037 3.784,15.072 3.825,15.095L8.265,17.625C8.49,17.755 8.769,17.755 8.995,17.625L14.415,14.537L14.415,16.675C14.416,16.697 14.406,16.719 14.388,16.732L9.9,19.288C7.901,20.424 5.348,19.748 4.193,17.778L4.192,17.778L4.192,17.78ZM3.023,8.216C3.514,7.378 4.284,6.739 5.198,6.41L5.196,6.561L5.196,11.621C5.195,11.879 5.334,12.119 5.56,12.245L10.98,15.332L9.104,16.402C9.085,16.414 9.061,16.416 9.041,16.407L4.552,13.848C2.557,12.708 1.873,10.19 3.022,8.218L3.023,8.218L3.023,8.216ZM18.44,11.756L13.02,8.668L14.896,7.6C14.915,7.588 14.938,7.585 14.959,7.594L19.448,10.151C21.446,11.291 22.131,13.813 20.977,15.784C20.485,16.621 19.716,17.261 18.803,17.591L18.803,12.38C18.804,12.122 18.665,11.883 18.44,11.757L18.44,11.756ZM20.307,8.983C20.263,8.956 20.219,8.93 20.175,8.905L15.735,6.375C15.51,6.245 15.231,6.245 15.006,6.375L9.586,9.463L9.586,7.325C9.585,7.303 9.595,7.281 9.613,7.268L14.1,4.713C16.1,3.576 18.655,4.253 19.807,6.226C20.294,7.059 20.471,8.035 20.306,8.983L20.307,8.983ZM8.566,12.793L6.689,11.725C6.669,11.715 6.656,11.696 6.653,11.674L6.653,6.559C6.654,4.282 8.526,2.437 10.834,2.439C11.81,2.439 12.754,2.777 13.505,3.393C13.471,3.411 13.413,3.443 13.374,3.466L8.934,5.996C8.708,6.122 8.568,6.361 8.569,6.619L8.566,12.792L8.566,12.794L8.566,12.793ZM9.586,10.625L12,9.25L14.414,10.625L14.414,13.375L12,14.75L9.585,13.375L9.585,10.625L9.586,10.625Z" style="fill:white;"/>
    </g>
</svg>
